<svg id="visual" viewBox="0 0 960 540" width="960" height="540" xmlns="http://www.w3.org/2000/svg" xmlns:xlink="http://www.w3.org/1999/xlink" version="1.1"><g transform="translate(471.91415096278206 228.6476659088948)"><path d="M170 -242C227.1 -227.7 285 -192.2 308 -140.9C330.9 -89.7 318.9 -22.8 287.2 25.4C255.6 73.6 204.3 103.1 166.4 140.9C128.5 178.6 104 224.6 59.5 267.3C14.9 309.9 -49.6 349.3 -88.9 326.8C-128.2 304.2 -142.3 219.9 -176.6 162.8C-210.9 105.7 -265.3 75.8 -289.1 30.5C-312.9 -14.9 -306.1 -75.8 -279.6 -125.2C-253.2 -174.7 -207.2 -212.7 -157.3 -230.2C-107.4 -247.8 -53.7 -244.9 1.4 -247C56.4 -249.1 112.8 -256.2 170 -242" fill="#0086e6"></path></g></svg>