<svg id="visual" viewBox="0 0 960 540" width="960" height="540" xmlns="http://www.w3.org/2000/svg" xmlns:xlink="http://www.w3.org/1999/xlink" version="1.1"><rect x="0" y="0" width="960" height="540" fill="#ffffff"></rect><defs><linearGradient id="grad1_0" x1="43.8%" y1="100%" x2="100%" y2="0%"><stop offset="14.444444444444446%" stop-color="#ffffff" stop-opacity="1"></stop><stop offset="85.55555555555554%" stop-color="#ffffff" stop-opacity="1"></stop></linearGradient></defs><defs><linearGradient id="grad2_0" x1="0%" y1="100%" x2="56.3%" y2="0%"><stop offset="14.444444444444446%" stop-color="#ffffff" stop-opacity="1"></stop><stop offset="85.55555555555554%" stop-color="#ffffff" stop-opacity="1"></stop></linearGradient></defs><g transform="translate(960, 540)"><path d="M-108 0C-104.3 -13.1 -100.6 -26.3 -96.1 -39.8C-91.5 -53.3 -86.1 -67.3 -76.4 -76.4C-66.6 -85.5 -52.5 -89.8 -39 -94.2C-25.6 -98.7 -12.8 -103.4 0 -108L0 0Z" fill="#0086e6"></path></g><g transform="translate(0, 0)"><path d="M108 0C107.8 15.2 107.6 30.4 99.8 41.3C91.9 52.2 76.4 58.9 64.3 64.3C52.3 69.8 43.8 74.2 33.7 81.3C23.5 88.4 11.8 98.2 0 108L0 0Z" fill="#0086e6"></path></g></svg>