<svg id="visual" viewBox="0 0 900 600" width="900" height="600" xmlns="http://www.w3.org/2000/svg" xmlns:xlink="http://www.w3.org/1999/xlink" version="1.1"><path d="M0 532L100 553L200 508L300 522L400 553L500 515L600 534L700 557L800 520L900 551L900 601L800 601L700 601L600 601L500 601L400 601L300 601L200 601L100 601L0 601Z" fill="#0e6cb0"></path><path d="M0 556L100 532L200 565L300 535L400 548L500 552L600 550L700 572L800 540L900 564L900 601L800 601L700 601L600 601L500 601L400 601L300 601L200 601L100 601L0 601Z" fill="#0086e6"></path><path d="M0 556L100 580L200 571L300 579L400 570L500 571L600 571L700 560L800 581L900 559L900 601L800 601L700 601L600 601L500 601L400 601L300 601L200 601L100 601L0 601Z" fill="#0e6cb0"></path></svg>